<?xml version="1.0" encoding="UTF-8" standalone="no"?>
<!DOCTYPE svg PUBLIC "-//W3C//DTD SVG 1.1//EN"
 "http://www.w3.org/Graphics/SVG/1.1/DTD/svg11.dtd">
<!-- Generated by graphviz version 2.40.1 (20161225.0304)
 -->
<!-- Title: G Pages: 1 -->
<svg width="407pt" height="198pt"
 viewBox="0.00 0.00 406.63 198.00" xmlns="http://www.w3.org/2000/svg" xmlns:xlink="http://www.w3.org/1999/xlink">
<g id="graph0" class="graph" transform="scale(1 1) rotate(0) translate(4 194)">
<title>G</title>
<polygon fill="#ffffff" stroke="transparent" points="-4,4 -4,-194 402.635,-194 402.635,4 -4,4"/>
<!-- A0 -->
<g id="node1" class="node">
<title>A0</title>
<polygon fill="#fff8dc" stroke="#000000" points="108.5444,-170 .1516,-170 .1516,-134 114.5444,-134 114.5444,-164 108.5444,-170"/>
<polyline fill="none" stroke="#000000" points="108.5444,-170 108.5444,-164 "/>
<polyline fill="none" stroke="#000000" points="114.5444,-164 108.5444,-164 "/>
<text text-anchor="middle" x="57.348" y="-155" font-family="Helvetica,sans-Serif" font-size="10.00" fill="#000000">You can stick notes</text>
<text text-anchor="middle" x="57.348" y="-143" font-family="Helvetica,sans-Serif" font-size="10.00" fill="#000000">on diagrams too!</text>
</g>
<!-- A1 -->
<g id="node2" class="node">
<title>A1</title>
<polygon fill="none" stroke="#000000" points="132.348,-146 132.348,-190 252.348,-190 252.348,-146 132.348,-146"/>
<text text-anchor="start" x="142.061" y="-171" font-family="Helvetica,sans-Serif" font-size="10.00" fill="#000000">＜＜interface＞＞</text>
<text text-anchor="start" x="157.3435" y="-159" font-family="Helvetica,sans-Serif" font-size="10.00" fill="#000000">AbstractFactory</text>
<polygon fill="none" stroke="#000000" points="132.348,-114 132.348,-146 252.348,-146 252.348,-114 132.348,-114"/>
<text text-anchor="start" x="154.98" y="-127" font-family="Helvetica,sans-Serif" font-size="10.00" fill="#000000">+createProduct()</text>
</g>
<!-- A2 -->
<g id="node3" class="node">
<title>A2</title>
<polygon fill="none" stroke="#000000" points="145.348,-32 145.348,-64 239.348,-64 239.348,-32 145.348,-32"/>
<text text-anchor="start" x="155.399" y="-45" font-family="Helvetica,sans-Serif" font-size="10.00" fill="#000000">ConcreteFactory</text>
<polygon fill="none" stroke="#000000" points="145.348,0 145.348,-32 239.348,-32 239.348,0 145.348,0"/>
<text text-anchor="start" x="154.98" y="-13" font-family="Helvetica,sans-Serif" font-size="10.00" fill="#000000">+createProduct()</text>
</g>
<!-- A1&#45;&gt;A2 -->
<g id="edge1" class="edge">
<title>A1&#45;&gt;A2</title>
<path fill="none" stroke="#000000" stroke-dasharray="5,2" d="M192.348,-103.3677C192.348,-90.2173 192.348,-76.3106 192.348,-64.3008"/>
<polygon fill="none" stroke="#000000" points="188.8481,-103.7013 192.348,-113.7013 195.8481,-103.7014 188.8481,-103.7013"/>
</g>
<!-- A3 -->
<g id="node4" class="node">
<title>A3</title>
<polygon fill="none" stroke="#000000" points="398.4227,-170 270.2733,-170 270.2733,-134 398.4227,-134 398.4227,-170"/>
<text text-anchor="middle" x="334.348" y="-155" font-family="Helvetica,sans-Serif" font-size="10.00" fill="#000000">＜＜interface＞＞</text>
<text text-anchor="middle" x="334.348" y="-143" font-family="Helvetica,sans-Serif" font-size="10.00" fill="#000000">AbstractProduct</text>
</g>
<!-- A4 -->
<g id="node5" class="node">
<title>A4</title>
<polygon fill="none" stroke="#000000" points="385.865,-50 282.831,-50 282.831,-14 385.865,-14 385.865,-50"/>
<text text-anchor="middle" x="334.348" y="-29" font-family="Helvetica,sans-Serif" font-size="10.00" fill="#000000">ConcreteProduct</text>
</g>
<!-- A3&#45;&gt;A4 -->
<g id="edge2" class="edge">
<title>A3&#45;&gt;A4</title>
<path fill="none" stroke="#000000" stroke-dasharray="5,2" d="M334.348,-123.664C334.348,-100.8583 334.348,-69.4985 334.348,-50.0037"/>
<polygon fill="none" stroke="#000000" points="330.8481,-123.7745 334.348,-133.7746 337.8481,-123.7746 330.8481,-123.7745"/>
</g>
</g>
</svg>
